<svg xmlns="http://www.w3.org/2000/svg" width="108" height="135" viewBox="0 0 108 135">
	<g fill="none" stroke="#9a63d4" stroke-width="7" stroke-linecap="round">
		<path d="M28 70q7 15 1 25-5 9 2 19"/>
		<path d="M46 72q-6 16 0 26 5 9-2 18"/>
		<path d="M64 72q6 15 0 25-5 9 2 19"/>
		<path d="M82 70q-7 14-1 24 5 9-2 20"/>
	</g>
	<path d="M8 74C8 22 100 22 100 74Q84.7 92 69.3 74Q54 92 38.7 74Q23.3 92 8 74Z" fill="#c084fc"/>
	<circle cx="40" cy="46" r="12" fill="#ffffff"/>
	<circle cx="68" cy="46" r="12" fill="#ffffff"/>
	<circle cx="41" cy="48" r="5.5" fill="#3b2a4a"/>
	<circle cx="69" cy="48" r="5.5" fill="#3b2a4a"/>
</svg>
