<svg xmlns="http://www.w3.org/2000/svg" width="130" height="108" viewBox="0 0 130 108">
	<g fill="none" stroke="#c2410c" stroke-width="7" stroke-linecap="round">
		<path d="M38 70L20 74L14 88"/>
		<path d="M46 78L34 86L30 100"/>
		<path d="M92 70L110 74L116 88"/>
		<path d="M84 78L96 86L100 100"/>
	</g>
	<g fill="none" stroke="#ef4444" stroke-width="11" stroke-linecap="round">
		<path d="M34 56C16 50 8 34 18 24C27 16 40 24 37 36"/>
		<path d="M96 56C114 50 122 34 112 24C103 16 90 24 93 36"/>
	</g>
	<g fill="none" stroke="#ef4444" stroke-width="9" stroke-linecap="round">
		<path d="M19 23L9 13"/>
		<path d="M111 23L121 13"/>
	</g>
	<ellipse cx="65" cy="64" rx="36" ry="26" fill="#ef4444"/>
	<ellipse cx="65" cy="70" rx="24" ry="13" fill="#fca5a5"/>
	<circle cx="52" cy="54" r="10" fill="#ffffff"/>
	<circle cx="78" cy="54" r="10" fill="#ffffff"/>
	<circle cx="53" cy="56" r="4.5" fill="#450a0a"/>
	<circle cx="77" cy="56" r="4.5" fill="#450a0a"/>
	<g fill="none" stroke="#991b1b" stroke-width="5" stroke-linecap="round">
		<path d="M41 41L58 48"/>
		<path d="M89 41L72 48"/>
	</g>
	<path d="M55 75q10 -8 20 0" fill="none" stroke="#991b1b" stroke-width="4.5" stroke-linecap="round"/>
</svg>
